<svg viewBox="0 0 20 18" fill="none" xmlns="http://www.w3.org/2000/svg">
<path d="M19 14.5C19.5523 14.5 20 14.0523 20 13.5C20 12.9477 19.5523 12.5 19 12.5V14.5ZM13.6 12.5C13.0477 12.5 12.6 12.9477 12.6 13.5C12.6 14.0523 13.0477 14.5 13.6 14.5V12.5ZM15.3 16.1999C15.3 16.7521 15.7477 17.1999 16.3 17.1999C16.8523 17.1999 17.3 16.7521 17.3 16.1999H15.3ZM17.3 10.7999C17.3 10.2476 16.8523 9.79986 16.3 9.79986C15.7477 9.79986 15.3 10.2476 15.3 10.7999H17.3ZM11.8964 17.8045C12.4431 17.726 12.8227 17.2192 12.7442 16.6725C12.6657 16.1259 12.1589 15.7463 11.6123 15.8248L11.8964 17.8045ZM10.8957 11.6017C11.445 11.6593 11.937 11.2607 11.9945 10.7115C12.0521 10.1622 11.6535 9.67023 11.1043 9.61265L10.8957 11.6017ZM9 17V16C6.65249 16 4.80538 15.6209 3.58506 15.0649C2.30982 14.4839 2 13.8648 2 13.5H1H0C0 15.0682 1.25079 16.1991 2.75584 16.8849C4.31583 17.5956 6.46872 18 9 18V17ZM1 13.5H2C2 13.5942 1.95168 13.4771 2.32372 13.1851C2.66038 12.9209 3.19341 12.6364 3.89797 12.3751C5.29943 11.8553 7.18135 11.5 9 11.5V10.5V9.5C6.95266 9.5 4.83457 9.89464 3.20254 10.4999C2.39035 10.8011 1.64824 11.1728 1.08897 11.6118C0.565073 12.0229 0 12.6557 0 13.5H1ZM12 4.05501H11C11 5.05565 10.1063 6 9 6V7V8C11.2074 8 13 6.16361 13 4.05501H12ZM9 7V6C7.89374 6 7 5.05565 7 4.05501H6H5C5 6.16361 6.79255 8 9 8V7ZM6 4.05501H7C7 3.00718 7.93986 2 9 2V1V0C6.74643 0 5 1.99361 5 4.05501H6ZM9 1V2C10.0601 2 11 3.00718 11 4.05501H12H13C13 1.99361 11.2536 0 9 0V1ZM19 13.5V12.5H16.3V13.5V14.5H19V13.5ZM16.3 13.5V12.5H13.6V13.5V14.5H16.3V13.5ZM16.3 16.1999H17.3V13.5H16.3H15.3V16.1999H16.3ZM16.3 13.5H17.3V10.7999H16.3H15.3V13.5H16.3ZM11.7544 16.8146L11.6123 15.8248C10.8262 15.9376 9.95197 16 9 16V17V18C10.0382 18 11.0079 17.932 11.8964 17.8045L11.7544 16.8146ZM9 10.5V11.5C9.60775 11.5 10.251 11.5342 10.8957 11.6017L11 10.6072L11.1043 9.61265C10.3936 9.53815 9.68069 9.5 9 9.5V10.5Z" fill="currentColor"/>
</svg>
