<svg viewBox="0 0 19 19" fill="none" xmlns="http://www.w3.org/2000/svg">
<path d="M9.21443 5.99989C9.21443 7.51129 8.15921 8.58535 6.85753 8.58535C5.55585 8.58535 4.50063 7.51129 4.50063 5.99989C4.50063 4.48848 5.55585 3.58535 6.85753 3.58535C8.15921 3.58535 9.21443 4.48848 9.21443 5.99989Z" stroke="currentColor" stroke-width="2" stroke-linejoin="round"/>
<path d="M13 14.6851C13 16.2397 11.1818 17.4999 7 17.4999C2.81818 17.4999 1 16.2397 1 14.6851C1 13.1305 3.68629 11.8702 7 11.8702C10.3137 11.8702 13 13.1305 13 14.6851Z" stroke="currentColor" stroke-width="2" stroke-linejoin="round"/>
<path d="M14.5 1L15.3499 2.83016L17.3532 3.07295L15.8752 4.44684L16.2634 6.42705L14.5 5.446L12.7366 6.42705L13.1248 4.44684L11.6468 3.07295L13.6501 2.83016L14.5 1Z" stroke="currentColor" stroke-width="2" stroke-linejoin="round"/>
</svg>
