<svg  viewBox="0 0 16 18" fill="none" xmlns="http://www.w3.org/2000/svg">
<path d="M13.0492 17.28C12.0692 18.23 10.9992 18.08 9.96919 17.63C8.87919 17.17 7.87919 17.15 6.72919 17.63C5.28919 18.25 4.52919 18.07 3.66919 17.28C-1.21081 12.25 -0.490812 4.59 5.04919 4.31C6.39919 4.38 7.33919 5.05 8.12919 5.11C9.30919 4.87 10.4392 4.18 11.6992 4.27C13.2092 4.39 14.3492 4.99 15.0992 6.07C11.9792 7.94 12.7192 12.05 15.5792 13.2C15.0092 14.7 14.2692 16.19 13.0392 17.29L13.0492 17.28ZM8.02919 4.25C7.87919 2.02 9.68919 0.18 11.7692 0C12.0592 2.58 9.42919 4.5 8.02919 4.25Z" fill="#000000"/>
</svg>
