<svg viewBox="0 0 17 19" fill="none" xmlns="http://www.w3.org/2000/svg">
<path d="M3.16667 5.84197C4.63943 5.84197 5.83333 4.64613 5.83333 3.17098C5.83333 1.69584 4.63943 0.5 3.16667 0.5C1.69391 0.5 0.5 1.69584 0.5 3.17098C0.5 4.64613 1.69391 5.84197 3.16667 5.84197ZM3.16667 5.84197V17.5667M13.8333 12.2247C15.3061 12.2247 16.5 13.4205 16.5 14.8957C16.5 16.3708 15.3061 17.5667 13.8333 17.5667C12.3606 17.5667 11.1667 16.3708 11.1667 14.8957C11.1667 13.4205 12.3606 12.2247 13.8333 12.2247ZM13.8333 12.2247V5.87757C13.8333 4.40481 12.6394 3.2109 11.1667 3.2109H9.56667" stroke="currentColor" stroke-linecap="round" stroke-linejoin="round"/>
</svg>
