<svg viewBox="0 0 18 20" fill="none" xmlns="http://www.w3.org/2000/svg">
<path d="M3.66667 6.34197C5.13943 6.34197 6.33333 5.14613 6.33333 3.67098C6.33333 2.19584 5.13943 1 3.66667 1C2.19391 1 1 2.19584 1 3.67098C1 5.14613 2.19391 6.34197 3.66667 6.34197ZM3.66667 6.34197V18.0667M14.3333 12.7247C15.8061 12.7247 17 13.9205 17 15.3957C17 16.8708 15.8061 18.0667 14.3333 18.0667C12.8606 18.0667 11.6667 16.8708 11.6667 15.3957C11.6667 13.9205 12.8606 12.7247 14.3333 12.7247ZM14.3333 12.7247V6.37757C14.3333 4.90481 13.1394 3.7109 11.6667 3.7109H10.0667" stroke="currentColor" stroke-width="2" stroke-linecap="round" stroke-linejoin="round"/>
</svg>
