<svg viewBox="0 0 22 22" fill="none" xmlns="http://www.w3.org/2000/svg">
<path d="M16.3605 10.6C16.3605 11.6604 17.2201 12.52 18.2805 12.52C19.3409 12.52 20.2005 11.6604 20.2005 10.6C20.2005 9.53961 19.3409 8.68 18.2805 8.68C17.2201 8.68 16.3605 9.53961 16.3605 10.6ZM16.3605 10.6H11.2005M16.3605 2.92C16.3605 3.98039 17.2201 4.84 18.2805 4.84C19.3409 4.84 20.2005 3.98039 20.2005 2.92C20.2005 1.85961 19.3409 1 18.2805 1C17.2201 1 16.3605 1.85961 16.3605 2.92ZM16.3605 2.92H5.2M16.3605 18.28C16.3605 19.3404 17.2201 20.2 18.2805 20.2C19.3409 20.2 20.2005 19.3404 20.2005 18.28C20.2005 17.2196 19.3409 16.36 18.2805 16.36C17.2201 16.36 16.3605 17.2196 16.3605 18.28ZM16.3605 18.28H10.8405C10.3103 18.28 9.88047 17.8502 9.88047 17.32V3.88M4.84 2.92C4.84 3.98039 3.98039 4.84 2.92 4.84C1.85961 4.84 1 3.98039 1 2.92C1 1.85961 1.85961 1 2.92 1C3.98039 1 4.84 1.85961 4.84 2.92Z" stroke="currentColor" stroke-width="2" stroke-linecap="round"/>
</svg>
