<svg width="500" height="500" viewBox="0 0 500 500" fill="none" xmlns="http://www.w3.org/2000/svg">
<path d="M216 26.1011C211.8 27.1011 201.8 31.4011 193.4 35.6011C178.4 43.2011 178.4 43.2011 167.8 44.0011C148.2 45.6011 139.4 48.9011 130 58.3011C119.2 69.0011 114 80.5011 114 93.6011V101.201L109.1 106.601C97.2005 119.601 97.8005 134.601 111.3 162.001C114.7 168.901 117.6 174.701 117.8 175.001C117.9 175.301 117.1 176.601 116 177.801C107.5 186.901 108.2 204.501 117.6 218.601C124.5 229.001 133.2 233.401 146.7 233.301H155.8L157.6 237.901C159.7 243.301 164.1 251.101 168 256.001C171.3 260.301 173.2 272.001 170.6 272.001C167.1 272.001 162.2 278.801 159.4 287.601L156.6 296.201L151.1 298.701C148 300.101 139.5 304.101 132.2 307.601C124.8 311.101 118.6 314.001 118.3 314.001C117.1 314.001 87.3005 329.401 82.6005 332.401C65.1005 343.701 55.6005 359.001 51.1005 383.001C48.3005 398.501 44.1005 445.801 43.7005 468.001C43.5005 478.101 43.6005 478.501 45.7005 478.801C48.9005 479.301 48.5005 482.301 52.0005 433.501C56.5005 370.601 61.7005 355.001 83.6005 339.401C88.4005 336.001 133.4 313.001 135.3 313.001C135.6 313.001 140 311.001 145.1 308.601C155.3 303.801 155.5 303.801 156.6 310.501C158.6 322.501 180.9 365.101 185.6 365.801C188.7 366.301 217.7 336.501 216 334.501C213.6 331.601 211.4 333.001 199 345.501L186.6 358.001L182.8 352.001C174.6 339.201 164.9 318.101 162.5 308.201C161.3 303.101 161.4 302.201 164.2 293.201C168.7 278.901 173 273.701 173 282.501C173 292.401 184.2 306.301 202.6 319.501C215.5 328.801 225.7 338.501 231.9 347.501L237 354.801L238.5 388.701C242.6 482.601 242.3 478.201 245.4 478.801C248.7 479.501 249 477.701 248 460.501C247.5 451.101 246.6 432.001 246 418.001C245.4 404.001 244.5 384.601 244.1 375.001C243.2 357.901 243.3 357.401 245.5 352.901C247.8 348.401 251 344.801 251 346.701C251 348.201 260.6 362.701 263.3 365.301C264.5 366.501 267.1 368.701 269 370.101C274.3 374.101 277.4 380.901 275.6 384.501C274.5 386.601 274.4 387.901 275.2 389.901C275.7 391.301 278.6 398.801 281.5 406.501C284.4 414.201 289.1 426.601 292 434.001C294.8 441.401 297.5 448.701 298 450.101C298.4 451.601 299.5 454.301 300.3 456.101C301.1 458.001 303.5 463.901 305.6 469.301C308.8 477.701 309.7 479.001 311.4 478.801C314.9 478.301 314.4 475.001 308.5 459.901C305.4 452.001 301.3 441.201 299.4 436.001C297.5 430.801 295.5 425.501 295 424.201C294.3 422.601 294.4 421.801 295.3 421.501C295.9 421.301 299.9 420.101 304 418.901C319.4 414.401 335.5 405.301 345.8 395.601C348.7 392.801 351.5 390.401 351.9 390.201C354 389.501 380.6 423.801 412.2 468.001C418.1 476.301 420.2 478.501 422.1 478.501C427.4 478.501 426.9 477.701 399.5 439.601C396.7 435.801 391.3 428.501 387.4 423.301L380.4 413.801L382.7 401.201C384 394.201 385.5 386.101 386.1 383.201C388.2 371.301 389.1 366.201 390.2 360.501C392.1 350.201 391.9 347.501 389.1 347.501C386.5 347.501 385.9 349.301 383 365.501C382.5 368.201 381.6 372.701 381.1 375.501C380.6 378.201 379.6 383.401 379 387.001C378.4 390.601 377.4 395.401 376.9 397.701C376.4 400.001 376 403.001 376 404.401C376 407.501 374.9 407.701 373.3 405.101C372.7 404.101 368.4 398.801 363.8 393.401C359.2 387.901 353.7 380.601 351.6 377.001C341.3 359.601 336.5 352.901 334 352.401C329.3 351.401 325.7 341.701 324.9 327.501C324.5 320.901 323.8 313.101 323.5 310.301C323.1 307.401 323.2 305.001 323.7 305.001C324.8 305.001 355.6 315.201 366 318.901C393.2 328.801 404.3 337.901 413.3 357.201C416.2 363.401 419.2 370.301 419.8 372.501C421.8 379.401 424.7 390.301 425.9 395.501C426.6 398.201 427.5 402.101 428 404.001C428.5 405.901 429.3 409.501 429.9 412.001C430.5 414.501 431.6 419.401 432.4 423.001C433.3 426.601 436 438.901 438.5 450.501C445 480.301 444.6 479.001 447.7 479.001C450.2 479.001 450.2 478.801 449.7 474.201C449.3 471.601 448.7 467.701 448.1 465.501C447.6 463.301 446.7 459.001 446 456.001C445.3 453.001 444.4 448.901 444 447.001C443.6 445.101 442.7 441.001 442 438.001C430.3 384.601 425.9 368.601 418.4 353.201C406.3 328.301 389.7 318.301 330.9 300.601C323.3 298.301 322.5 297.401 321.2 291.001C320.5 288.001 319.4 282.401 318.5 278.501C317.7 274.701 317 267.601 317 262.901C317 251.201 313.8 243.001 309.2 243.001C307.6 243.001 307.6 243.001 310.5 229.501C314.5 210.301 312.8 177.001 305.6 136.201C304.6 130.601 304.4 126.901 305.1 124.701C305.6 123.001 306 116.701 306 110.801C306 94.6011 302 85.9011 291.9 80.1011L287 77.3011L286.6 68.4011C285.4 37.3011 251.4 16.9011 216 26.1011ZM249.5 36.1011C265.7 43.7011 270.2 68.7011 257.3 80.0011C253.1 83.7011 252.4 83.5011 254.6 79.1011C261.9 64.5011 259.9 51.1011 248.7 39.3011C243.1 33.4011 243.2 33.1011 249.5 36.1011ZM208.1 50.0011C221.8 53.7011 231.6 75.4011 224.1 85.8011C220.8 90.5011 220.2 89.8011 220.8 82.1011C221.6 70.4011 216.2 58.7011 208 54.5011C203.7 52.3011 196.7 50.0011 194 50.0011C192 50.0011 191.8 49.8011 193 48.9011C194.6 47.9011 201.9 48.4011 208.1 50.0011ZM174.6 77.5011C179.6 79.7011 187.8 86.6011 186.7 87.6011C186.5 87.9011 182.7 86.6011 178.4 84.9011C165.3 79.7011 151.3 78.8011 141.5 82.6011L139.5 83.3011L141.5 81.0011C147.1 74.6011 164 72.8011 174.6 77.5011ZM277.8 88.4011C286.8 93.1011 294.2 108.101 298 129.501C301.1 147.101 302.5 156.101 305.1 175.501C306.7 187.601 306.7 219.001 305.1 226.001C302.3 238.301 296.2 251.001 289.3 258.701C286.7 261.701 286.6 261.701 280.6 257.101C260 241.301 235.7 238.501 223.5 250.701C215.2 259.001 221.6 266.901 238.8 269.601C241.1 270.001 242.9 270.501 242.8 270.901C242.6 271.201 240.9 273.601 239 276.301L235.6 281.101L229.5 280.401C197.3 277.101 172.8 259.801 162.5 233.101C159.2 224.601 158.9 224.401 153.1 226.501C136 232.501 116 215.501 116 195.101C116 179.001 131.1 173.201 142.5 184.901C146 188.401 148.1 188.701 153 186.101L156.5 184.201V171.301C156.6 159.701 156.9 157.601 159.7 149.001C163.4 137.701 165 130.501 165 124.501C165 119.201 161.7 110.001 159 107.501C156.5 105.301 157.2 104.201 162.6 101.901C171.3 98.0011 184.6 96.8011 204.8 98.1011C229.3 99.7011 244.3 97.5011 258.9 89.9011C265.2 86.7011 273.2 86.0011 277.8 88.4011ZM146.9 107.401C149 108.601 148.4 108.801 140.4 109.201C132.9 109.601 130.2 110.301 123.6 113.401C119.2 115.401 115.5 116.801 115.3 116.601C114.4 115.701 120.4 110.001 124.3 108.101C129.3 105.601 142.9 105.201 146.9 107.401ZM155 128.801C155 129.201 153.3 130.201 151.3 130.901C146.1 132.701 132.8 139.401 128.3 142.501C126.2 143.901 124.4 144.601 124.2 144.001C123.6 142.201 128.8 136.301 133.4 133.601C139.9 129.801 155 126.501 155 128.801ZM310.7 264.601C311.3 272.301 312.8 282.101 314 286.501C316 293.901 316.9 302.401 318.9 330.501C319.6 341.201 320.7 344.601 326.8 356.101C327.8 358.201 289.6 379.901 284.8 380.001C283.8 380.001 282.1 377.901 280.5 374.501C278.8 371.201 276 367.601 273.2 365.301C266.3 359.701 262.4 354.601 253.2 339.301C251.9 337.201 249 334.201 246.7 332.801C238.3 327.401 233 321.701 233 317.901C233 310.501 237.5 310.201 248.4 316.601C255.2 320.701 256.3 321.101 257.6 319.801C258.4 319.001 258.8 317.601 258.4 316.701C257.8 315.001 240.5 306.001 237.9 306.001C233.3 306.001 235.7 295.801 240.7 293.901C244 292.701 245.5 293.101 257.2 298.701C267 303.401 270 303.601 270 299.401C270 297.801 256.5 291.001 248.2 288.501C241.3 286.401 240.4 284.501 243.7 279.001C247.3 272.901 258.1 274.601 272.2 283.301C277 286.301 280 286.001 280 282.501C280 278.401 256.7 267.501 241.2 264.501C232.5 262.701 229.3 261.401 227.9 258.801C225.2 253.801 235.8 248.601 247.1 249.201C261.2 250.001 284.2 265.101 301.3 284.801C304.2 288.201 306.7 288.901 307.6 286.501C308.4 284.601 306.7 282.101 299.6 274.601C292.8 267.401 292.7 265.901 298.1 257.701C304.6 248.001 305 247.701 307.4 249.401C309.3 250.601 309.6 252.401 310.7 264.601ZM184.5 271.101C186.7 272.601 191.4 275.201 195 277.001C198.6 278.701 202.2 280.501 203 280.901C205.2 282.001 220.4 285.701 228.8 287.001C236.2 288.201 237.1 288.801 234.4 291.101C231.6 293.401 230 297.801 230 303.301C230 306.301 229.4 310.001 228.6 311.601C224.4 320.101 226.7 325.601 238.3 334.301C245.3 339.601 245.9 340.401 244.7 341.901C243.9 342.801 242.6 344.801 241.8 346.301L240.4 349.201L236.2 342.701C232.2 336.601 220.9 325.001 214.5 320.301C195.1 306.301 185 296.901 181.1 289.201C178.9 284.701 177.3 266.501 179.3 267.701C180 268.101 182.3 269.601 184.5 271.101ZM336.2 363.701C342 372.601 348 383.001 348 384.301C348 385.101 344.7 388.401 340.8 391.701C328.2 402.001 318.2 407.601 303.5 412.301C291.8 416.101 291.8 416.101 290.3 411.601C289.5 409.501 288.3 406.301 287.6 404.601C284.7 397.901 282 390.701 282 389.501C282 388.801 285.7 386.801 290.2 385.001C304.3 379.401 323.7 368.101 329.5 362.201C332.3 359.301 333.4 359.501 336.2 363.701Z" fill="currentColor"/>
<path d="M270.4 130C261.4 131.3 257.8 133.9 260.3 137.3C261.5 139 262 139 268 137.6C276.7 135.5 280.3 135.6 285.1 138.1C289.5 140.3 292 139.5 292 135.9C292 131.3 281.2 128.4 270.4 130Z" fill="currentColor"/>
<path d="M229.601 136.602C227.201 140.002 219.401 143.302 210.501 144.902C196.001 147.402 187.401 152.502 188.201 158.102C188.601 161.202 192.401 161.902 193.901 159.202C195.401 156.302 200.701 153.602 207.301 152.202C210.401 151.502 215.601 150.502 218.701 149.802C228.201 147.802 237.401 140.002 235.601 135.402C234.801 133.202 231.701 133.802 229.601 136.602Z" fill="currentColor"/>
<path d="M274.701 153.8C272.601 156.1 272.501 160.9 274.401 165.4C277.401 172.6 284.001 170.4 284.001 162.3C284.001 153.7 278.901 149.1 274.701 153.8Z" fill="currentColor"/>
<path d="M251.7 157.603C249.2 160.203 253.7 170.403 261.2 178.703C270.3 189.003 270.5 194.303 261.9 197.903C258.4 199.303 257 200.403 257 201.903C257 204.803 260.4 205.403 265.3 203.203C271.3 200.603 274 196.503 274 190.303C274 185.103 274.2 185.503 263 170.503C261.1 168.003 258.9 164.003 258 161.703C256.5 157.703 253.6 155.803 251.7 157.603Z" fill="currentColor"/>
<path d="M211.2 163.201C209.5 164.901 209.7 172.501 211.6 176.101C213.6 180.101 218.8 180.001 220.7 175.901C224 169.001 216.1 158.301 211.2 163.201Z" fill="currentColor"/>
<path d="M127.3 188.703C125.1 189.503 125.9 192.703 128.8 194.603C132.8 197.103 135.1 200.103 134.6 201.903C132.9 207.703 132.8 209.003 134.4 209.603C135.3 209.903 136.7 209.703 137.4 209.103C138.5 208.103 139 208.303 139.5 209.903C140.5 213.103 142.7 214.503 144.5 213.003C150.1 208.403 134.2 185.903 127.3 188.703Z" fill="currentColor"/>
<path d="M256.5 220.002C247.2 221.402 234.6 229.303 235.2 233.403C235.6 236.403 238.2 236.503 241.6 233.503C249.7 226.303 256.8 224.602 272.5 226.203C274.9 226.403 275.6 226.103 275.8 224.402C276.3 220.702 266.5 218.502 256.5 220.002Z" fill="currentColor"/>
<path d="M354.5 35.8027C350.4 38.3027 348.7 40.7027 349.4 42.5027C350.2 44.6027 352.9 44.4027 356.8 42.0027C367.8 35.3027 380 47.5027 371.6 56.8027C370.5 58.1027 366.4 61.0027 362.7 63.2027C355.4 67.4027 351.8 71.9027 352.2 76.0027C352.6 79.8027 355.7 79.1027 358.8 74.6027C360.4 72.4027 363.9 69.5027 367 67.8027C375.3 63.2027 377.6 61.4027 379.4 57.6027C382.9 50.2027 380.7 41.8027 373.7 36.6027C369.7 33.7027 358.6 33.2027 354.5 35.8027Z" fill="currentColor"/>
<path d="M393.3 84.4992C390.8 85.5992 390 86.5992 390 88.5992V91.0992L397 90.3992L403.9 89.6992L407.5 93.2992C414.8 100.599 410.2 107.599 395.5 111.499C388.4 113.299 385.5 115.099 383.5 119.099C382.2 121.499 382.1 122.499 383.1 123.599C384.8 125.699 387.8 125.299 389.1 122.699C390.9 119.499 392.8 118.399 399 116.999C409.9 114.599 416 109.499 417.4 101.699C419.5 89.9992 404.6 79.3992 393.3 84.4992Z" fill="currentColor"/>
<path d="M347 91.0005C344.9 95.0005 348.2 99.0005 352.3 97.4005C356.3 95.9005 354.9 89.0005 350.5 89.0005C349.1 89.0005 347.6 89.8005 347 91.0005Z" fill="currentColor"/>
<path d="M375.201 134.2C372.501 136.9 374.501 142 378.101 142C379.701 142 383.001 138.5 383.001 136.8C383.001 133.9 377.401 132 375.201 134.2Z" fill="currentColor"/>
<path d="M87.2002 360.2C85.5002 361.9 85.7002 363.1 88.3002 367C98.3002 382 107.6 418.9 114.6 471.9C115.4 477.8 115.9 479 117.9 479C120.9 479 121.7 477.2 121 472.2C120.6 469.6 119.7 463.7 119.1 459C118 450.9 117.3 446.7 114.9 432.7C110.1 404.3 99.7002 371.9 92.4002 362.3C89.7002 358.7 89.0002 358.4 87.2002 360.2Z" fill="currentColor"/>
</svg>
