<svg viewBox="0 0 19 15" fill="none" xmlns="http://www.w3.org/2000/svg">
<path d="M15.6709 12.8569C15.3985 12.9027 15.2149 13.1605 15.2606 13.4328C15.3063 13.7052 15.5642 13.8889 15.8365 13.8431L15.7537 13.35L15.6709 12.8569ZM14.5152 7.38237C14.2391 7.38237 14.0152 7.60623 14.0152 7.88237C14.0152 8.15851 14.2391 8.38237 14.5152 8.38237V7.88237V7.38237ZM13.5924 4.78265V5.28265C14.7922 5.28265 15.7646 4.30979 15.7646 3.10999H15.2646H14.7646C14.7646 3.75777 14.2396 4.28265 13.5924 4.28265V4.78265ZM11.9202 3.10999H11.4202C11.4202 4.30979 12.3926 5.28265 13.5924 5.28265V4.78265V4.28265C12.9451 4.28265 12.4202 3.75777 12.4202 3.10999H11.9202ZM13.5924 1.43734V0.937336C12.3926 0.937336 11.4202 1.9102 11.4202 3.10999H11.9202H12.4202C12.4202 2.46222 12.9451 1.93734 13.5924 1.93734V1.43734ZM15.2646 3.10999H15.7646C15.7646 1.9102 14.7922 0.937336 13.5924 0.937336V1.43734V1.93734C14.2396 1.93734 14.7646 2.46222 14.7646 3.10999H15.2646ZM18.5 10.6641H18C18 11.1914 17.8295 11.6554 17.478 12.0242C17.1221 12.3976 16.5447 12.7101 15.6709 12.8569L15.7537 13.35L15.8365 13.8431C16.8643 13.6705 17.66 13.2825 18.2018 12.7141C18.7481 12.141 19 11.4217 19 10.6641H18.5ZM14.5152 7.88237V8.38237C15.5259 8.38237 16.4193 8.66915 17.0467 9.1071C17.6757 9.54622 18 10.1045 18 10.6641H18.5H19C19 9.68738 18.4323 8.8548 17.6191 8.28713C16.8042 7.7183 15.7053 7.38237 14.5152 7.38237V7.88237ZM8.76253 2.92936H8.26253C8.26253 4.20757 7.39247 5.03069 6.39183 5.03069V5.53069V6.03069C8.00979 6.03069 9.26253 4.6925 9.26253 2.92936H8.76253ZM6.39183 5.53069V5.03069C5.39118 5.03069 4.52113 4.20757 4.52113 2.92936H4.02113H3.52113C3.52113 4.6925 4.77387 6.03069 6.39183 6.03069V5.53069ZM4.02113 2.92936H4.52113C4.52113 2.29063 4.74107 1.81702 5.0641 1.50285C5.3902 1.18569 5.85339 1 6.39183 1V0.5V0C5.62097 0 4.8988 0.268648 4.36688 0.785991C3.83188 1.30633 3.52113 2.0474 3.52113 2.92936H4.02113ZM6.39183 0.5V1C6.93027 1 7.39346 1.18569 7.71956 1.50285C8.04258 1.81702 8.26253 2.29063 8.26253 2.92936H8.76253H9.26253C9.26253 2.0474 8.95178 1.30633 8.41678 0.785991C7.88485 0.268648 7.16269 0 6.39183 0V0.5ZM12.5703 11.6679H12.0703C12.0703 12.2153 11.7645 12.7758 10.8989 13.2271C10.0168 13.687 8.59945 14 6.53513 14L6.53513 14.5L6.53513 15C8.67712 15 10.2773 14.679 11.3612 14.1138C12.4617 13.5401 13.0703 12.6846 13.0703 11.6679H12.5703ZM6.53513 14.5L6.53513 14C4.47081 14 3.05346 13.687 2.17136 13.2271C1.30581 12.7758 1 12.2153 1 11.6679H0.5H0C0 12.6846 0.608609 13.5401 1.70904 14.1138C2.79294 14.679 4.39315 15 6.53513 15L6.53513 14.5ZM0.5 11.6679H1C1 11.194 1.42844 10.6114 2.48006 10.1179C3.49201 9.64301 4.92515 9.33574 6.53513 9.33574V8.83574V8.33574C4.81201 8.33574 3.22758 8.66247 2.05524 9.21262C0.922566 9.74415 0 10.5776 0 11.6679H0.5ZM6.53513 8.83574V9.33574C8.14512 9.33574 9.57826 9.64301 10.5902 10.1179C11.6418 10.6114 12.0703 11.194 12.0703 11.6679H12.5703H13.0703C13.0703 10.5776 12.1477 9.74415 11.015 9.21262C9.84268 8.66247 8.25826 8.33574 6.53513 8.33574V8.83574Z" fill="currentColor"/>
</svg>
