<svg width="18" height="18" viewBox="0 0 18 18" fill="none" xmlns="http://www.w3.org/2000/svg">
<path d="M9 10.0557C11.4287 10.0557 13.6029 10.5187 15.1514 11.2451C16.7396 11.9902 17.5 12.9206 17.5 13.7783C17.4998 14.7093 16.9694 15.6175 15.6211 16.3203C14.2561 17.0318 12.0974 17.5 9 17.5C5.90256 17.5 3.74394 17.0318 2.37891 16.3203C1.03062 15.6175 0.500168 14.7093 0.5 13.7783C0.5 12.9206 1.26042 11.9902 2.84863 11.2451C4.39712 10.5187 6.57133 10.0557 9 10.0557ZM9 0.5C10.7964 0.5 12.3184 2.20783 12.3184 4.00977C12.3183 5.78774 10.819 7.375 9 7.375C7.18101 7.375 5.6817 5.78774 5.68164 4.00977C5.68164 2.20783 7.20364 0.5 9 0.5Z" stroke-width="2" stroke="currentColor"/>
</svg>
