<svg viewBox="0 0 22 22" fill="none" xmlns="http://www.w3.org/2000/svg">
<path d="M9.491 1.77212C9.87195 0.742626 11.3281 0.742625 11.709 1.77212L13.6051 6.89626C13.7249 7.21993 13.9801 7.47513 14.3037 7.5949L19.4279 9.491C20.4574 9.87195 20.4574 11.3281 19.4279 11.709L14.3037 13.6051C13.9801 13.7249 13.7249 13.9801 13.6051 14.3037L11.709 19.4279C11.3281 20.4574 9.87195 20.4574 9.491 19.4279L7.5949 14.3037C7.47513 13.9801 7.21993 13.7249 6.89626 13.6051L1.77212 11.709C0.742626 11.3281 0.742625 9.87195 1.77212 9.491L6.89626 7.5949C7.21993 7.47513 7.47513 7.21993 7.5949 6.89626L9.491 1.77212Z" stroke="currentColor" stroke-width="2" stroke-linejoin="round"/>
</svg>
